<svg xmlns="http://www.w3.org/2000/svg" viewBox="0 0 64 64"><path d="M31.953 0C20.95 0 12 8.95 12 19.953c0 7.152 4.309 13.606 8.867 20.442 4.457 6.68 9.067 13.585 10.086 21.73a1 1 0 0 0 1.985 0c1.023-8.145 5.636-15.05 10.093-21.73 4.563-6.833 8.871-13.29 8.871-20.442C51.902 8.95 42.953 0 31.953 0zm0 2c9.895 0 17.95 8.05 17.95 17.953 0 6.547-4.145 12.758-8.536 19.332-3.71 5.563-7.523 11.274-9.418 17.817-1.894-6.543-5.707-12.258-9.418-17.82C18.145 32.706 14 26.5 14 19.952 14 10.051 22.055 2 31.953 2zM5.023 7.512a1.012 1.012 0 0 0-.914.625 1.002 1.002 0 0 0 .555 1.3l3.711 1.5a.97.97 0 0 0 .375.075 1.001 1.001 0 0 0 .371-1.93L5.414 7.586a.915.915 0 0 0-.39-.074zm53.954 0a.898.898 0 0 0-.387.074l-3.711 1.496a1.001 1.001 0 1 0 .746 1.855l3.71-1.5c.513-.203.759-.789.556-1.3a1.008 1.008 0 0 0-.914-.625zm-28.118 2.52a9.923 9.923 0 0 0-3.28.964c-4.946 2.434-6.993 8.438-4.56 13.383 1.739 3.535 5.297 5.59 8.993 5.59a9.96 9.96 0 0 0 4.394-1.028 9.997 9.997 0 0 0 5.215-11.68 1.006 1.006 0 0 0-1.234-.695.999.999 0 0 0-.692 1.235 7.994 7.994 0 0 1-4.172 9.344c-3.957 1.945-8.761.312-10.71-3.649-1.946-3.957-.31-8.762 3.652-10.71a8.032 8.032 0 0 1 2.625-.77 1 1 0 0 0-.23-1.984zm4.426.566c-.39.011-.758.246-.91.632-.2.516.05 1.098.563 1.301a7.872 7.872 0 0 1 2.601 1.668.998.998 0 0 0 1.414-.027 1 1 0 0 0-.027-1.414 9.901 9.901 0 0 0-3.25-2.086 1.065 1.065 0 0 0-.39-.074zM32 14c-3.309 0-6 2.691-6 6s2.691 6 6 6 6-2.691 6-6-2.691-6-6-6zm0 2c2.207 0 4 1.793 4 4s-1.793 4-4 4-4-1.793-4-4 1.793-4 4-4zM1 18a1 1 0 1 0 0 2h6a1 1 0 1 0 0-2zm56 0a1 1 0 1 0 0 2h6a1 1 0 1 0 0-2zM8.766 26.988c-.133 0-.266.024-.391.075l-3.71 1.5a1.001 1.001 0 0 0-.556 1.3 1.005 1.005 0 0 0 1.305.555l3.707-1.5c.512-.207.762-.79.555-1.305a1.007 1.007 0 0 0-.91-.625zm46.472.004c-.39.008-.758.242-.914.625a1.005 1.005 0 0 0 .555 1.305l3.71 1.496a1.005 1.005 0 0 0 1.3-.555 1.004 1.004 0 0 0-.553-1.3l-3.711-1.5a.955.955 0 0 0-.387-.07z"/></svg>